<svg width="125" height="100" viewBox="0 0 125 100" fill="none" xmlns="http://www.w3.org/2000/svg">
<path fill-rule="evenodd" clip-rule="evenodd" d="M67.0671 9.57722C57.864 6.45489 45.9103 6.10215 31.0637 10.4969C29.1548 11.0619 27.1496 9.97141 26.585 8.06112C26.0203 6.15084 27.1101 4.14418 29.019 3.57912C44.9729 -1.14341 58.4832 -0.952374 69.3817 2.74512C80.2984 6.4488 88.3415 13.589 93.4308 22.2904C103.515 39.5317 102.043 63.0078 88.644 78.2611L88.6405 78.2651C69.4999 99.99 45.7836 103.925 27.5246 96.669C9.40751 89.4689 -3.07173 71.2342 0.662027 49.829C0.670785 49.7788 0.680606 49.7288 0.691483 49.679C4.96387 30.1198 17.8666 21.0102 29.5001 16.9168C35.2649 14.8884 40.7337 14.0746 44.7455 13.7627C46.7581 13.6063 48.422 13.5748 49.5966 13.5833C50.1843 13.5875 50.651 13.6018 50.979 13.6156C51.1431 13.6225 51.2726 13.6293 51.3655 13.6347L51.477 13.6416L51.5116 13.6439L51.5236 13.6448L51.5282 13.6451C51.5301 13.6452 51.5319 13.6454 51.2712 17.2168L51.5319 13.6454C53.5173 13.7905 55.0092 15.5188 54.8642 17.5056C54.7193 19.4904 52.9955 20.9824 51.0126 20.8407L51.0103 20.8405C51.0094 20.8404 51.0077 20.8403 51.0067 20.8402L51.0048 20.8401L50.9479 20.8366C50.892 20.8334 50.8006 20.8285 50.6758 20.8233C50.4261 20.8128 50.0434 20.8007 49.5445 20.7971C48.5457 20.7899 47.0873 20.8165 45.3039 20.9551C41.7237 21.2334 36.9057 21.958 31.8912 23.7225C21.9812 27.2094 11.3728 34.6857 7.75046 51.1445C4.7157 68.7501 14.8702 83.8778 30.1853 89.9643C45.3794 96.0027 65.9287 93.1327 83.2301 73.4978C94.4462 60.7286 95.8263 40.667 87.2094 25.9346C82.9481 18.649 76.2521 12.6934 67.0671 9.57722Z" fill="white"/>
<path fill-rule="evenodd" clip-rule="evenodd" d="M123.769 15.9808C125.674 18.2886 125.33 21.6895 123.001 23.577L62.2905 72.7804C60.0266 74.6152 56.7046 74.351 54.7649 72.182L28.3706 42.6671C26.3752 40.4359 26.583 37.0241 28.8346 35.0468C31.0862 33.0695 34.5291 33.2754 36.5245 35.5066L59.4462 61.1383L116.104 15.2197C118.433 13.3323 121.864 13.673 123.769 15.9808Z" fill="#FF4638"/>
</svg>
