<svg width="164" height="205" viewBox="0 0 164 205" fill="none" xmlns="http://www.w3.org/2000/svg">
<path d="M31.6574 158.214H74.2127V197.663C74.2127 199.609 74.9858 201.475 76.3617 202.851C77.7377 204.227 79.6039 205 81.5499 205C83.4958 205 85.362 204.227 86.738 202.851C88.114 201.475 88.887 199.609 88.887 197.663V158.214H131.442C138.326 158.221 145.024 155.982 150.519 151.837C156.015 147.692 160.008 141.867 161.892 135.246C163.776 128.626 163.449 121.571 160.959 115.153C158.469 108.736 153.954 103.306 148.098 99.6878C151.165 93.7863 152.902 87.2847 153.187 80.6399C153.472 73.9952 152.298 67.3687 149.748 61.2262C147.197 55.0837 143.333 49.5744 138.425 45.0855C133.518 40.5967 127.686 37.2372 121.342 35.2434C120.159 25.5223 115.458 16.5705 108.127 10.0776C100.797 3.58476 91.3426 0 81.5499 0C71.7571 0 62.3031 3.58476 54.9723 10.0776C47.6415 16.5705 42.941 25.5223 41.7582 35.2434C35.4132 37.2372 29.582 40.5967 24.6745 45.0855C19.767 49.5744 15.9022 55.0837 13.352 61.2262C10.8018 67.3687 9.62792 73.9952 9.91301 80.6399C10.1981 87.2847 11.9352 93.7863 15.0021 99.6878C9.14605 103.306 4.6304 108.736 2.14077 115.153C-0.348852 121.571 -0.676479 128.626 1.20764 135.246C3.09175 141.867 7.08471 147.692 12.5803 151.837C18.0758 155.982 24.7739 158.221 31.6574 158.214ZM27.7443 110.107C28.9575 109.803 30.0729 109.194 30.9847 108.338C31.8964 107.482 32.5742 106.407 32.9536 105.215C33.3441 104.038 33.43 102.782 33.2033 101.563C32.9766 100.344 32.4448 99.2025 31.6574 98.2448C28.2211 94.0804 25.9383 89.0869 25.0372 83.7635C24.1361 78.4401 24.6483 72.9734 26.5226 67.91C28.3969 62.8467 31.5676 58.3641 35.7177 54.9105C39.8678 51.4569 44.8518 49.1533 50.1714 48.2301C51.8896 47.9279 53.444 47.0234 54.5555 45.6787C55.6671 44.3341 56.2632 42.6374 56.2368 40.893V39.8413C56.2368 33.1084 58.9114 26.6513 63.6723 21.8904C68.4332 17.1295 74.8903 14.4549 81.6232 14.4549C88.3561 14.4549 94.8133 17.1295 99.5742 21.8904C104.335 26.6513 107.01 33.1084 107.01 39.8413V40.893C106.984 42.6409 107.584 44.3405 108.7 45.6856C109.817 47.0308 111.377 47.9331 113.1 48.2301C118.42 49.1668 123.401 51.4835 127.546 54.9486C131.69 58.4138 134.852 62.906 136.717 67.9763C138.581 73.0466 139.082 78.5174 138.169 83.842C137.256 89.1665 134.962 94.1582 131.516 98.3182C130.728 99.2759 130.196 100.417 129.97 101.636C129.743 102.855 129.829 104.112 130.219 105.288C130.599 106.48 131.277 107.555 132.188 108.411C133.1 109.267 134.216 109.876 135.429 110.18C139.404 111.204 142.872 113.637 145.189 117.025C147.506 120.413 148.515 124.528 148.028 128.603C147.541 132.679 145.591 136.44 142.541 139.187C139.49 141.934 135.547 143.48 131.442 143.539H88.887V103.259L120.168 77.8476C121.679 76.6185 122.64 74.8393 122.84 72.9014C123.039 70.9636 122.461 69.0259 121.231 67.5145C120.002 66.0032 118.223 65.042 116.285 64.8425C114.347 64.643 112.41 65.2215 110.898 66.4506L88.887 84.3532V54.3688C88.887 52.4229 88.114 50.5567 86.738 49.1807C85.362 47.8047 83.4958 47.0317 81.5499 47.0317C79.6039 47.0317 77.7377 47.8047 76.3617 49.1807C74.9858 50.5567 74.2127 52.4229 74.2127 54.3688V84.3532L52.2014 66.4506C50.69 65.2215 48.7523 64.643 46.8145 64.8425C44.8766 65.042 43.0974 66.0032 41.8682 67.5145C40.6391 69.0259 40.0606 70.9636 40.2601 72.9014C40.4596 74.8393 41.4208 76.6185 42.9321 77.8476L74.2127 103.259V143.539H31.6574C27.5084 143.532 23.506 142.004 20.4087 139.243C17.3114 136.483 15.3342 132.682 14.8519 128.561C14.3695 124.44 15.4155 120.285 17.7917 116.884C20.1678 113.483 23.709 111.071 27.7443 110.107Z" fill="#F0DDBF"/>
</svg>
