<svg width="278" height="53" viewBox="0 0 278 53" fill="none" xmlns="http://www.w3.org/2000/svg">
<path d="M250.005 49.8573V18.4153H258.869V23.7455H259.228C259.787 22.1085 260.766 20.6911 262.163 19.4933C263.561 18.2955 265.497 17.6966 267.972 17.6966C271.206 17.6966 273.642 18.7746 275.279 20.9307C276.956 23.0867 277.794 26.161 277.794 30.1537V49.8573H268.931V30.8723C268.931 28.8361 268.611 27.3388 267.972 26.3806C267.334 25.3825 266.196 24.8834 264.559 24.8834C263.84 24.8834 263.141 24.9832 262.463 25.1828C261.784 25.3425 261.165 25.622 260.606 26.0213C260.087 26.4205 259.668 26.9196 259.348 27.5185C259.029 28.0775 258.869 28.7363 258.869 29.4949V49.8573H250.005Z" fill="white"/>
<path d="M228.957 50.576C226.641 50.576 224.565 50.1967 222.729 49.4381C220.932 48.6795 219.395 47.5815 218.117 46.1442C216.879 44.7068 215.921 42.97 215.242 40.9338C214.564 38.8975 214.224 36.6217 214.224 34.1064C214.224 31.591 214.564 29.3152 215.242 27.279C215.921 25.2427 216.879 23.5259 218.117 22.1285C219.395 20.6911 220.932 19.5931 222.729 18.8345C224.565 18.0759 226.641 17.6966 228.957 17.6966C231.273 17.6966 233.329 18.0759 235.126 18.8345C236.962 19.5931 238.499 20.6911 239.737 22.1285C241.015 23.5259 241.993 25.2427 242.672 27.279C243.351 29.3152 243.69 31.591 243.69 34.1064C243.69 36.6217 243.351 38.8975 242.672 40.9338C241.993 42.97 241.015 44.7068 239.737 46.1442C238.499 47.5815 236.962 48.6795 235.126 49.4381C233.329 50.1967 231.273 50.576 228.957 50.576ZM228.957 43.5689C230.714 43.5689 232.071 43.0299 233.03 41.9519C233.988 40.8739 234.467 39.3367 234.467 37.3404V30.9322C234.467 28.9359 233.988 27.3987 233.03 26.3207C232.071 25.2427 230.714 24.7037 228.957 24.7037C227.2 24.7037 225.843 25.2427 224.885 26.3207C223.926 27.3987 223.447 28.9359 223.447 30.9322V37.3404C223.447 39.3367 223.926 40.8739 224.885 41.9519C225.843 43.0299 227.2 43.5689 228.957 43.5689Z" fill="white"/>
<path d="M203.496 15.0614C201.699 15.0614 200.382 14.6622 199.543 13.8637C198.745 13.0252 198.346 11.9672 198.346 10.6895V9.37194C198.346 8.09429 198.745 7.05621 199.543 6.25768C200.382 5.41923 201.699 5 203.496 5C205.293 5 206.59 5.41923 207.389 6.25768C208.227 7.05621 208.647 8.09429 208.647 9.37194V10.6895C208.647 11.9672 208.227 13.0252 207.389 13.8637C206.59 14.6622 205.293 15.0614 203.496 15.0614ZM199.064 18.4153H207.928V49.8573H199.064V18.4153Z" fill="white"/>
<path d="M187.157 49.8573C184.083 49.8573 181.747 49.0788 180.15 47.5216C178.593 45.9645 177.815 43.6887 177.815 40.6942V25.3026H173.383V18.4153H175.599C176.797 18.4153 177.615 18.1358 178.054 17.5768C178.493 16.9779 178.713 16.1395 178.713 15.0615V9.91098H186.678V18.4153H192.907V25.3026H186.678V42.97H192.428V49.8573H187.157Z" fill="white"/>
<path d="M159.027 44.5871H158.728C158.448 45.3856 158.069 46.1442 157.59 46.8629C157.151 47.5816 156.572 48.2204 155.853 48.7794C155.134 49.3383 154.276 49.7775 153.278 50.0969C152.32 50.4163 151.202 50.576 149.924 50.576C146.69 50.576 144.234 49.518 142.558 47.4019C140.921 45.2459 140.102 42.1715 140.102 38.1789V18.4153H148.966V37.4003C148.966 39.3168 149.305 40.7941 149.984 41.8322C150.663 42.8702 151.82 43.3893 153.457 43.3893C154.136 43.3893 154.815 43.2895 155.494 43.0898C156.172 42.8902 156.771 42.6107 157.29 42.2514C157.809 41.8521 158.229 41.373 158.548 40.814C158.867 40.2551 159.027 39.5963 159.027 38.8377V18.4153H167.891V49.8574H159.027V44.5871Z" fill="white"/>
<path d="M131.135 49.8573C128.1 49.8573 125.864 49.1186 124.427 47.6414C123.029 46.1641 122.331 44.028 122.331 41.2332V5.539H131.194V42.97H135.147V49.8573H131.135Z" fill="white"/>
<path d="M101.282 50.576C98.9667 50.576 96.8905 50.1967 95.0539 49.4381C93.2572 48.6795 91.72 47.5815 90.4424 46.1442C89.2047 44.7068 88.2464 42.97 87.5677 40.9338C86.8889 38.8975 86.5496 36.6217 86.5496 34.1064C86.5496 31.591 86.8889 29.3152 87.5677 27.279C88.2464 25.2427 89.2047 23.5259 90.4424 22.1285C91.72 20.6911 93.2572 19.5931 95.0539 18.8345C96.8905 18.0759 98.9667 17.6966 101.282 17.6966C103.598 17.6966 105.654 18.0759 107.451 18.8345C109.288 19.5931 110.825 20.6911 112.063 22.1285C113.34 23.5259 114.318 25.2427 114.997 27.279C115.676 29.3152 116.015 31.591 116.015 34.1064C116.015 36.6217 115.676 38.8975 114.997 40.9338C114.318 42.97 113.34 44.7068 112.063 46.1442C110.825 47.5815 109.288 48.6795 107.451 49.4381C105.654 50.1967 103.598 50.576 101.282 50.576ZM101.282 43.5689C103.039 43.5689 104.397 43.0299 105.355 41.9519C106.313 40.8739 106.792 39.3367 106.792 37.3404V30.9322C106.792 28.9359 106.313 27.3987 105.355 26.3207C104.397 25.2427 103.039 24.7037 101.282 24.7037C99.5256 24.7037 98.1681 25.2427 97.2099 26.3207C96.2517 27.3987 95.7726 28.9359 95.7726 30.9322V37.3404C95.7726 39.3367 96.2517 40.8739 97.2099 41.9519C98.1681 43.0299 99.5256 43.5689 101.282 43.5689Z" fill="white"/>
<path d="M78.7566 15.8968V16.6351L78.2398 17.078C77.8461 17.4225 77.6492 17.9147 77.6492 18.5545C77.7477 18.8498 77.7477 19.1451 77.6492 19.4404C77.6492 19.4896 77.6492 19.5634 77.6492 19.6619C77.6984 19.7111 77.6984 19.7849 77.6492 19.8833C77.4032 20.1786 77.2309 20.5231 77.1325 20.9169C77.0832 21.3106 77.034 21.5567 76.9848 21.6551C76.9356 21.9012 76.7879 22.1473 76.5419 22.3934L76.0251 22.7625C75.779 22.9593 75.6068 23.23 75.5083 23.5745C75.4099 23.9191 75.3607 24.1159 75.3607 24.1651C75.3115 24.4604 75.2376 24.8788 75.1392 25.4201C75.09 25.9615 74.9423 26.4045 74.6963 26.749C74.5978 26.9458 74.5978 27.1673 74.6963 27.4134C74.6963 27.6103 74.5978 27.9056 74.401 28.2993C74.2041 28.5454 74.0565 28.7668 73.958 28.9637C73.9088 29.1606 73.835 29.3328 73.7366 29.4805L73.2936 30.4402C73.2444 30.5386 73.146 30.7109 72.9983 30.957C72.8999 31.1538 72.8507 31.3507 72.8507 31.5476C72.8999 31.6952 72.8753 31.8675 72.7768 32.0643C72.7276 32.2612 72.703 32.4335 72.703 32.5811V32.7287C72.7522 32.9256 72.703 33.1471 72.5554 33.3932C72.4569 33.59 72.3831 33.7377 72.3339 33.8361C72.2847 34.1314 71.9894 35.0665 71.448 36.6414C71.3988 36.8383 71.3003 37.0844 71.1527 37.3797C71.0051 37.675 70.9066 37.9457 70.8574 38.1917L70.7836 38.3394C70.8328 38.6839 70.7344 39.1761 70.4883 39.8159C70.2914 40.4065 70.193 40.874 70.193 41.2185V41.3662C70.0453 41.563 69.9223 41.8337 69.8239 42.1783C69.7254 42.5228 69.627 42.7935 69.5286 42.9903L68.7165 44.5406C68.4212 44.9344 68.2736 45.3527 68.2736 45.7956V46.0171C68.2736 46.3124 68.1997 46.6077 68.0521 46.903C67.7568 47.3459 67.5107 47.7397 67.3138 48.0842C67.1662 48.4287 67.0432 48.6994 66.9447 48.8963C66.6986 49.3884 66.2311 49.979 65.5421 50.668C64.5577 51.5047 64.0902 51.8984 64.1394 51.8492C63.7949 52.0461 63.3766 52.1937 62.8844 52.2922C62.6875 52.2922 62.5645 52.3414 62.5153 52.4398C62.1708 52.6859 61.8262 52.8089 61.4817 52.8089H61.1864C60.9896 52.6121 60.6943 52.3168 60.3005 51.923C59.956 51.5785 59.6853 51.234 59.4885 50.8895C58.9963 50.102 58.7256 49.3392 58.6764 48.601C58.578 48.158 58.4303 47.8627 58.2335 47.7151C57.8397 47.3213 57.569 46.8292 57.4214 46.2386C57.2737 45.9925 57.1261 45.771 56.9784 45.5742C56.88 45.3773 56.7816 45.205 56.6832 45.0574C56.5355 44.8605 56.4125 44.5406 56.314 44.0977C56.2156 43.3102 56.0187 42.7688 55.7234 42.4735C55.625 42.4243 55.5512 42.3505 55.502 42.2521C55.4527 42.1536 55.4527 42.0798 55.502 42.0306C55.502 41.6861 55.4035 41.4154 55.2067 41.2185C55.0098 40.9725 54.8868 40.8248 54.8375 40.7756L53.7302 39.2253C53.681 39.1268 53.6564 39.0038 53.6564 38.8562C53.6564 38.7085 53.6071 38.6101 53.5087 38.5609C53.4595 38.2163 53.3611 37.798 53.2134 37.3058C53.115 36.8137 53.0904 36.42 53.1396 36.1247C53.1396 35.977 53.0904 35.7555 52.9919 35.4602C52.8443 35.1649 52.7459 34.9435 52.6966 34.7958C52.6474 34.599 52.6228 34.3775 52.6228 34.1314C52.6228 33.3932 52.426 32.7534 52.0322 32.212L51.8846 31.9167C51.9338 31.5722 51.8354 31.2277 51.5893 30.8831C51.4416 30.6371 51.3678 30.391 51.3678 30.1449V29.9234C51.4662 29.136 51.294 28.4223 50.851 27.7825C50.7034 27.5857 50.6296 27.2411 50.6296 26.749C50.6788 26.2076 50.5311 25.7154 50.1866 25.2725C50.039 25.1248 49.9651 24.928 49.9651 24.6819V24.5343V24.3866C50.0144 23.6976 49.8667 22.8609 49.5222 21.8766L49.4484 21.8028C49.4976 21.4582 49.3746 21.0153 49.0793 20.4739C48.8332 19.8833 48.7101 19.4404 48.7101 19.1451V18.9974C48.8086 18.4561 48.6855 17.9885 48.341 17.5948C48.2426 17.3979 48.1441 17.1518 48.0457 16.8565C47.9473 16.5612 47.7996 16.3644 47.6028 16.2659C47.652 16.1183 47.6274 15.9706 47.5289 15.823C47.4797 15.6261 47.4551 15.4785 47.4551 15.38C47.4551 14.8387 47.3075 14.3957 47.0122 14.0512C46.9137 13.8543 46.8153 13.5591 46.7169 13.1653V12.7962V11.4674C46.7169 11.3689 46.6431 11.2213 46.4954 11.0244C46.397 10.7783 46.3478 10.5815 46.3478 10.4338V10.36C46.2493 10.2616 46.2001 10.1631 46.2001 10.0647C46.2001 9.96627 46.2001 9.89245 46.2001 9.84323C46.2001 9.79401 46.1755 9.69558 46.1263 9.54794C46.1263 9.35107 46.1755 9.20342 46.2739 9.10499C46.3724 9.00656 46.3724 8.90813 46.2739 8.80969C46.2247 8.66205 46.2001 8.56361 46.2001 8.5144C46.2493 8.36675 46.2493 8.24371 46.2001 8.14527C46.2001 8.04684 46.2001 7.94841 46.2001 7.84998C46.2001 7.40703 46.3478 7.03791 46.6431 6.74261C47.2336 6.15202 47.5782 5.70908 47.6766 5.41378C47.8242 5.06927 48.1441 4.79858 48.6363 4.60171C49.2269 4.35563 49.6698 3.98651 49.9651 3.49435C50.0144 3.29748 50.2112 3.12523 50.5557 2.97758C50.9003 2.82993 51.1709 2.92836 51.3678 3.27287C51.417 3.37131 51.5401 3.642 51.7369 4.08494C51.983 4.47867 52.2783 4.82318 52.6228 5.11848C52.8197 5.31535 52.9427 5.58603 52.9919 5.93055C53.0412 6.22584 53.0904 6.44732 53.1396 6.59497C53.1888 6.79183 53.238 7.11174 53.2872 7.55468C53.3365 7.99763 53.4103 8.34214 53.5087 8.58822L53.6564 9.03117C53.8532 9.27725 54.0255 9.67098 54.1731 10.2124C54.3208 10.7045 54.4438 11.049 54.5422 11.2459C54.5915 11.3935 54.5915 11.5166 54.5422 11.615C54.5422 11.7134 54.5422 11.8119 54.5422 11.9103L54.7637 13.4606C54.7637 13.559 54.8129 13.6575 54.9114 13.7559C55.4035 14.5434 55.6496 15.1832 55.6496 15.6753V15.8968C55.6004 16.1921 55.6496 16.4628 55.7973 16.7089C55.9449 16.955 56.0433 17.1272 56.0926 17.2257C56.1418 17.3733 56.2648 17.5456 56.4617 17.7424C56.8554 18.2346 57.0523 18.7514 57.0523 19.2927V19.588C57.0523 19.7357 57.1015 19.9572 57.1999 20.2524C57.5936 20.843 57.7905 21.5567 57.7905 22.3934C57.7413 22.6886 57.8151 23.0332 58.012 23.4269C58.2088 23.7222 58.3073 24.1651 58.3073 24.7557C58.2581 25.7893 58.578 26.7736 59.267 27.7087C59.5623 28.2009 59.7099 28.6192 59.7099 28.9637V29.1114C59.7099 29.2098 59.7592 29.3574 59.8576 29.5543C60.0052 30.1449 60.0791 30.4894 60.0791 30.5878V30.8093C60.0791 30.957 60.1037 31.1046 60.1529 31.2523C60.2021 31.3507 60.2267 31.4737 60.2267 31.6214V31.769C60.2267 31.9659 60.2759 32.1381 60.3744 32.2858C60.4728 32.3842 60.5466 32.4581 60.5958 32.5073C60.645 32.5073 60.645 32.5319 60.5958 32.5811C60.5958 32.5811 60.6204 32.6057 60.6697 32.6549C60.7681 33.0979 60.8911 33.3932 61.0388 33.5408C61.0388 33.5408 61.3833 33.8853 62.0723 34.5744C61.9739 35.0173 62.0231 35.5095 62.22 36.0508C62.4168 36.5922 62.5399 37.0106 62.5891 37.3058C62.5891 37.3551 62.6137 37.4043 62.6629 37.4535C62.7121 37.5027 62.7367 37.5765 62.7367 37.675C62.7367 38.0195 62.8352 38.364 63.032 38.7085C63.2289 39.053 63.4504 39.3729 63.6965 39.6682H63.9917C64.0902 39.6682 64.2132 39.6682 64.3609 39.6682C64.5085 39.6682 64.6316 39.619 64.73 39.5206C65.0253 39.2253 65.1975 38.9792 65.2468 38.7823C65.2468 38.5363 65.2714 38.3394 65.3206 38.1917C65.3698 38.0441 65.419 37.8964 65.4682 37.7488C65.4682 37.109 65.6651 36.6168 66.0588 36.2723C66.5018 35.6817 66.7725 35.3126 66.8709 35.1649C66.9201 35.0173 66.9939 34.845 67.0924 34.6482C67.24 34.4513 67.3384 34.2544 67.3877 34.0576C67.4369 33.9099 67.5107 33.7377 67.6091 33.5408C67.7568 33.3439 67.8552 33.1717 67.9044 33.024C68.0029 32.7287 68.0521 32.4827 68.0521 32.2858V32.1382C68.0521 31.9905 68.0767 31.8182 68.1259 31.6214C68.2243 31.3753 68.2982 31.203 68.3474 31.1046C68.5442 30.6125 68.6427 30.2925 68.6427 30.1449C68.5935 29.3574 68.7903 28.4223 69.2333 27.3396L69.8977 25.6416C69.9469 25.494 69.9715 25.2971 69.9715 25.051C70.0207 24.8049 70.0946 24.6081 70.193 24.4604C70.4391 24.1159 70.5621 23.7468 70.5621 23.3531C70.5621 23.2546 70.5867 23.1808 70.6359 23.1316C70.882 22.8855 71.0789 22.541 71.2265 22.0981C71.3742 21.6059 71.5218 21.2368 71.6695 20.9907C71.7679 20.843 71.8171 20.6216 71.8171 20.3263C71.8171 19.9325 71.8417 19.6865 71.8909 19.588C72.0878 19.2927 72.2355 18.9482 72.3339 18.5545C72.4323 18.1115 72.5061 17.767 72.5554 17.521C72.5554 17.1764 72.6046 16.9304 72.703 16.7827C72.8999 16.4874 73.1213 16.0445 73.3674 15.4539C73.6135 14.8633 73.835 14.4449 74.0318 14.1989C74.2287 13.9036 74.4256 13.3622 74.6224 12.5747L74.9916 11.615C75.1392 11.3689 75.2869 11.049 75.4345 10.6553C75.5822 10.2616 75.779 9.94166 76.0251 9.69558C76.0743 9.4495 76.1974 9.08038 76.3942 8.58822C76.5911 8.04684 76.7141 7.6039 76.7633 7.25938C76.8126 7.21017 76.8126 7.16095 76.7633 7.11173C76.7633 7.06252 76.788 7.03791 76.8372 7.03791C76.9848 6.79183 77.1325 6.47192 77.2801 6.07819C77.4278 5.68447 77.5508 5.36456 77.6492 5.11848C77.6984 4.92162 77.7477 4.74936 77.7969 4.60171C77.8953 4.45406 77.9691 4.28181 78.0184 4.08494C78.0676 3.78964 78.1906 3.59278 78.3875 3.49435L79.6425 2.60846C79.6425 2.51002 79.6917 2.46081 79.7901 2.46081C80.1347 2.41159 80.4053 2.31316 80.6022 2.16551C80.7991 1.96865 81.0205 1.69796 81.2666 1.35344C81.7096 0.76285 82.1525 0.344514 82.5955 0.098433C82.7923 -9.74017e-07 82.9646 -0.0246087 83.1122 0.0246097C83.2599 0.0738252 83.3337 0.196866 83.3337 0.393731V0.541377C83.3337 0.787458 83.3583 1.03354 83.4075 1.27962C83.506 1.5257 83.5552 1.77178 83.5552 2.01786V2.23933C83.5552 2.63306 83.4813 2.92836 83.3337 3.12523C82.8908 3.91268 82.6693 4.79858 82.6693 5.7829C82.6693 6.32428 82.5216 6.76722 82.2263 7.11173C82.0295 7.35782 81.931 7.72694 81.931 8.2191C82.0295 8.71126 81.931 9.15421 81.6357 9.54794C81.4881 9.7448 81.3651 10.1631 81.2666 10.8029C81.2174 10.8522 81.1682 10.9506 81.119 11.0982C81.119 11.1967 81.0944 11.2705 81.0451 11.3197C80.6022 11.7134 80.3069 12.181 80.1593 12.7224C79.9132 12.87 79.7409 13.1407 79.6425 13.5344C79.5441 13.9282 79.421 14.1989 79.2734 14.3465C79.3226 14.4942 79.298 14.6418 79.1995 14.7895C79.1503 14.9371 79.1011 15.0355 79.0519 15.0848C78.9535 15.3308 78.855 15.6015 78.7566 15.8968Z" fill="#FF4638"/>
<path d="M31.7444 6.37358L31.08 6.96417C30.9324 6.91496 30.7109 6.89035 30.4156 6.89035C30.1695 6.89035 29.948 6.86574 29.7512 6.81653C29.5051 6.71809 29.2344 6.71809 28.9391 6.81653C28.693 6.91496 28.5208 6.98878 28.4223 7.038L27.5364 7.48094C27.2904 7.62859 26.9459 7.70241 26.5029 7.70241H25.9861C25.494 7.60398 24.8049 7.72703 23.9191 8.07154C23.8206 8.16997 23.7222 8.21919 23.6238 8.21919C23.0824 8.21919 22.6886 8.2684 22.4426 8.36683C21.9504 8.46527 21.409 8.31762 20.8184 7.92389C20.7692 7.87467 20.6462 7.82546 20.4493 7.77624C20.3017 7.72702 20.2032 7.6532 20.154 7.55477C20.0064 7.45634 19.8587 7.45634 19.7111 7.55477C19.6126 7.6532 19.5388 7.70241 19.4896 7.70241C19.2927 7.6532 18.9974 7.6532 18.6037 7.70241C18.21 7.70241 17.8901 7.62859 17.644 7.48094C17.3979 7.38251 17.078 7.48094 16.6843 7.77624C15.3554 8.16997 14.3957 8.31762 13.8051 8.21919C13.7067 8.16997 13.5837 8.12075 13.436 8.07154C13.3376 8.02232 13.1899 7.99771 12.9931 7.99771C12.8454 7.99771 12.6978 8.07154 12.5501 8.21919H12.181C12.0334 8.07154 11.8611 7.99771 11.6642 7.99771C11.5166 7.99771 11.3443 8.07154 11.1475 8.21919C10.9998 8.31762 10.8768 8.39144 10.7783 8.44066C10.5815 8.63752 10.2862 8.73595 9.89245 8.73595C9.79402 8.73595 9.67098 8.73595 9.52333 8.73595C9.4249 8.68674 9.32646 8.68674 9.22803 8.73595C8.88352 8.83439 8.71126 8.95743 8.71126 9.10507C8.71126 9.25272 8.66204 9.37576 8.56361 9.4742C8.5144 9.52341 8.48979 9.59724 8.48979 9.69567C8.48979 9.84332 8.539 9.94175 8.63744 9.99097C8.73587 10.0402 8.78509 10.0894 8.78509 10.1386C8.78509 10.1878 8.80969 10.237 8.85891 10.2863C9.05577 10.6308 9.05577 10.9261 8.85891 11.1722C8.61283 11.5167 8.48979 11.8366 8.48979 12.1319C8.48979 12.2795 8.539 12.501 8.63744 12.7963C8.73587 13.2392 8.71126 13.6576 8.56361 14.0513C8.5144 14.1497 8.48979 14.3466 8.48979 14.6419V14.8634C8.58822 15.1587 8.63744 15.3801 8.63744 15.5278C8.63744 15.6754 8.58822 15.9461 8.48979 16.3399L8.41596 17.2257C8.41596 17.6195 8.48979 17.964 8.63744 18.2593V18.7761V21.4337C8.63744 21.7782 8.71126 22.0243 8.85891 22.172C9.00656 22.3196 9.25264 22.3934 9.59715 22.3934C9.84323 22.3934 10.1139 22.3442 10.4092 22.2458C10.8522 22.1474 11.2459 22.1966 11.5904 22.3934C11.7873 22.5411 12.1072 22.6149 12.5501 22.6149H14.1743C14.3711 22.6149 14.568 22.5903 14.7648 22.5411C15.0109 22.4427 15.2324 22.3934 15.4293 22.3934C15.4785 22.3934 15.6015 22.418 15.7984 22.4673C16.0445 22.4673 16.2659 22.3934 16.4628 22.2458C16.512 22.1966 16.6351 22.172 16.8319 22.172C17.6686 22.2704 18.2838 22.172 18.6775 21.8767C18.776 21.8275 18.8744 21.8275 18.9728 21.8767C19.0713 21.8767 19.1697 21.8767 19.2681 21.8767C19.3666 21.8767 19.5142 21.8767 19.7111 21.8767C19.9079 21.8767 20.0802 21.8028 20.2278 21.6552C20.5724 21.606 21.0399 21.5322 21.6305 21.4337C22.2211 21.3353 22.7133 21.3107 23.107 21.3599C23.6484 21.4091 24.362 21.2123 25.2479 20.7693C25.6416 20.6217 25.9615 20.5478 26.2076 20.5478C26.5029 20.5478 26.8228 20.6217 27.1673 20.7693C27.2658 20.8185 27.438 20.917 27.6841 21.0646C27.9794 21.2123 28.2501 21.2861 28.4962 21.2861C28.7915 21.3353 29.0867 21.5075 29.382 21.8028C29.4313 21.8521 29.5789 22.0489 29.825 22.3934C29.9726 22.5903 29.9973 22.7872 29.8988 22.984C29.8496 23.1809 29.7266 23.2793 29.5297 23.2793H29.4559C29.1606 23.2793 28.9391 23.3532 28.7915 23.5008C28.6438 23.5992 28.4962 23.7961 28.3485 24.0914C28.2993 24.2883 28.1763 24.4851 27.9794 24.682C27.2411 25.4202 26.749 26.1339 26.5029 26.8229C26.4045 27.1182 26.1092 27.4627 25.617 27.8564C25.5678 27.9549 25.4694 28.0287 25.3217 28.0779C25.2233 28.1271 25.1495 28.1517 25.1002 28.1517L24.8049 28.2256C24.1159 28.324 23.6238 28.3732 23.3285 28.3732H23.0332C22.541 28.2748 22.1719 28.2256 21.9258 28.2256C21.7782 28.2748 21.6059 28.2994 21.409 28.2994C21.2122 28.2994 21.0399 28.324 20.8923 28.3732C20.6954 28.5209 20.4001 28.5209 20.0064 28.3732C19.6126 28.2748 19.342 28.2256 19.1943 28.2256C18.899 28.2256 18.6283 28.3486 18.3822 28.5947C18.2838 28.6931 18.0377 28.7423 17.644 28.7423C16.6105 28.8408 15.7984 28.7177 15.2078 28.3732C15.0601 28.2256 14.9125 28.2009 14.7648 28.2994C14.2235 28.3486 13.7067 28.1763 13.2145 27.7826C12.8208 27.5857 12.5255 27.4873 12.3286 27.4873C11.7873 27.4873 11.2705 27.7334 10.7783 28.2256C10.1877 28.7177 9.67098 29.013 9.22803 29.1114C8.8343 29.2099 8.58822 29.579 8.48979 30.2188V31.1785C8.48979 31.3262 8.44057 31.5476 8.34214 31.8429C8.14527 32.089 8.04684 32.3351 8.04684 32.5812C8.04684 32.6796 8.09606 32.8765 8.19449 33.1718C8.39136 33.7624 8.48979 34.1561 8.48979 34.353V34.6483C8.48979 35.5342 8.5144 36.174 8.56361 36.5677C8.66204 37.4536 8.68665 38.118 8.63744 38.5609V42.5475L8.85891 43.6548L9.00656 44.0239C9.10499 44.7622 9.47411 45.1313 10.1139 45.1313C10.2616 45.1805 10.4338 45.1805 10.6307 45.1313C10.8768 45.0329 11.0982 44.9837 11.2951 44.9837C11.3935 44.9837 11.4428 44.959 11.4428 44.9098C11.492 44.8606 11.5412 44.836 11.5904 44.836C12.2302 44.8852 12.87 44.7868 13.5098 44.5407C14.1496 44.2946 14.5434 44.147 14.691 44.0978C14.7895 44.0978 14.9617 44.0978 15.2078 44.0978C15.4539 44.0978 15.6507 44.0239 15.7984 43.8763C16.0937 43.9255 16.4874 43.9009 16.9796 43.8025C17.4717 43.704 17.8901 43.6548 18.2346 43.6548C18.4315 43.704 18.6775 43.704 18.9728 43.6548C19.2681 43.5564 19.5388 43.5072 19.7849 43.5072C19.9818 43.5072 20.1294 43.5318 20.2278 43.581C20.4739 43.6302 20.7938 43.6548 21.1876 43.6548C21.5813 43.6548 21.9012 43.6794 22.1473 43.7286C22.3934 43.7286 22.8609 43.6302 23.5499 43.4333C23.6976 43.3841 23.8944 43.3595 24.1405 43.3595H24.362C24.5097 43.458 24.7311 43.5072 25.0264 43.5072C25.3217 43.5072 25.5678 43.4826 25.7647 43.4333C25.9615 43.3841 26.1338 43.3349 26.2814 43.2857C26.3799 43.2857 26.4537 43.2611 26.5029 43.2119C26.6013 43.1134 26.6998 43.0642 26.7982 43.0642C27.1919 42.9658 27.4626 42.8674 27.6103 42.7689C27.8071 42.7197 27.9794 42.7197 28.127 42.7689C28.2747 42.7689 28.3977 42.7689 28.4962 42.7689H29.4559C29.948 42.8674 30.5386 42.7689 31.2277 42.4736C31.523 42.3752 31.7444 42.3752 31.8921 42.4736C32.8272 42.9166 33.6146 43.5318 34.2544 44.3192C34.4021 44.5653 34.3775 44.8114 34.1806 45.0575C33.6885 45.7957 32.9748 46.5094 32.0397 47.1984C31.8921 47.2476 31.6952 47.2968 31.4491 47.346C31.203 47.3952 31.0062 47.4691 30.8585 47.5675H30.6371C30.5386 47.4199 30.3418 47.346 30.0465 47.346H29.2344L28.7176 48.1581C28.3731 48.5026 28.1024 48.6749 27.9056 48.6749C27.7087 48.6749 27.5364 48.601 27.3888 48.4534C27.0443 48.2073 26.7736 48.0843 26.5767 48.0843C26.4783 48.0843 26.306 48.1581 26.06 48.3057C25.7647 48.2073 25.4201 48.2565 25.0264 48.4534C24.6327 48.601 24.3374 48.6749 24.1405 48.6749H23.9929C23.8944 48.6749 23.7714 48.7241 23.6238 48.8225C23.5253 48.8717 23.4269 48.9209 23.3285 48.9702C22.9347 49.2162 22.6148 49.3393 22.3687 49.3393C22.2703 49.3393 22.1227 49.2901 21.9258 49.1916C21.6305 49.0932 21.3106 49.0932 20.9661 49.1916C20.5724 49.2901 20.2525 49.3393 20.0064 49.3393C19.8095 49.3393 19.465 49.2901 18.9728 49.1916C18.776 49.0932 18.5299 49.0932 18.2346 49.1916C17.9885 49.2901 17.8162 49.3639 17.7178 49.4131C17.3733 49.6592 16.8565 49.7822 16.1675 49.7822H16.0937C15.7984 49.9299 15.4293 50.0283 14.9863 50.0775C14.5434 50.0775 14.1743 50.1021 13.879 50.1514C13.5837 50.1514 13.2884 50.2006 12.9931 50.299C12.6978 50.3974 12.4517 50.4713 12.2548 50.5205C12.1072 50.5697 11.8857 50.5943 11.5904 50.5943C11.2459 50.5943 10.9752 50.5697 10.7783 50.5205C10.3354 50.3728 9.94166 50.4467 9.59715 50.7419C9.49872 50.9388 9.35107 51.0372 9.15421 51.0372C8.95734 51.0372 8.78508 50.9634 8.63744 50.8158C8.34214 50.6681 8.09606 50.5943 7.89919 50.5943C7.70233 50.5943 7.48086 50.6681 7.23477 50.8158C7.08713 50.9634 7.0133 51.0372 7.0133 51.0372C5.53682 51.1357 4.45406 51.1849 3.76504 51.1849C3.51896 51.1849 3.27287 51.1603 3.02679 51.1111C2.82993 51.0619 2.60846 51.0372 2.36238 51.0372C2.16551 50.9388 1.91943 50.742 1.62413 50.4467C1.32884 50.0529 1.10736 49.6346 0.959714 49.1916C0.76285 48.601 0.664418 48.1089 0.664418 47.7152C0.664418 47.3706 0.738242 47.0507 0.885891 46.7554C1.08276 46.5094 1.18119 46.2387 1.18119 45.9434C1.18119 45.6481 1.10736 45.3528 0.959714 45.0575C0.76285 44.713 0.76285 44.4423 0.959714 44.2454C1.25501 43.9501 1.40266 43.6056 1.40266 43.2119C1.40266 43.1134 1.35344 42.9166 1.25501 42.6213C1.2058 42.4244 1.18119 42.1537 1.18119 41.8092V40.9971C1.18119 40.6034 1.10736 40.1605 0.959714 39.6683C0.910499 39.5207 0.861283 39.373 0.812066 39.2254C0.76285 39.0285 0.713634 38.807 0.664418 38.5609C0.664418 38.5609 0.664418 38.5117 0.664418 38.4133C0.713634 38.3149 0.76285 38.1918 0.812066 38.0442C0.861283 37.8965 0.885891 37.7243 0.885891 37.5274L0.812066 37.2321C0.713634 37.0845 0.664418 36.8876 0.664418 36.6415V35.9771C0.615202 35.6326 0.615202 35.2389 0.664418 34.7959C0.664418 34.4514 0.565986 34.0331 0.369121 33.5409C0.172257 33.1964 0.073824 32.778 0.073824 32.2859C0.073824 31.7445 0.196864 31.3016 0.442945 30.9571C0.590593 30.6618 0.664418 30.3665 0.664418 30.0712C0.664418 29.7759 0.565986 29.5052 0.369121 29.2591C0.172257 29.0622 0.073824 28.8161 0.073824 28.5209V28.2994C0.073824 27.069 0.0492163 26.1831 0 25.6417C0 25.3464 0.12304 24.9527 0.369121 24.4605C0.565986 24.1652 0.664418 23.7223 0.664418 23.1317V20.8431C0.664418 20.7939 0.63981 20.6955 0.590594 20.5478C0.590594 20.4002 0.63981 20.2771 0.738242 20.1787C0.836675 20.0803 0.836675 19.9326 0.738242 19.7358C0.590594 19.4897 0.615202 19.1206 0.812066 18.6284C1.05815 17.7425 1.18119 16.9551 1.18119 16.266C1.08276 15.3309 1.13197 14.5435 1.32884 13.9037C1.37805 13.6576 1.30423 13.2884 1.10736 12.7963C1.00893 12.501 0.959714 12.3287 0.959714 12.2795C1.10736 11.8858 1.18119 11.5413 1.18119 11.246L1.10736 9.99097C1.10736 9.30194 1.27962 8.71135 1.62413 8.21919C1.821 7.97311 1.91943 7.70242 1.91943 7.40712C1.91943 7.06261 1.821 6.79192 1.62413 6.59505C1.42727 6.25054 1.32884 5.93063 1.32884 5.63534C1.32884 5.29083 1.25501 5.02014 1.10736 4.82327C1.00893 4.67562 0.959714 4.52797 0.959714 4.38032C0.959714 4.18346 1.00893 3.9866 1.10736 3.78973C1.2058 3.59287 1.25501 3.46983 1.25501 3.42061C1.40266 3.12531 1.69796 2.87923 2.1409 2.68237C2.38698 2.4855 2.70689 2.26403 3.10062 2.01795C3.54356 1.77187 3.88808 1.575 4.13416 1.42736C4.38024 1.27971 4.65093 1.18127 4.94622 1.13206C5.29074 1.08284 5.53682 1.03363 5.68447 0.984408C5.97976 0.787546 6.42271 0.689115 7.0133 0.689115H7.53007C7.77615 0.689115 7.97302 0.639898 8.12067 0.541464C8.41596 0.443033 8.68665 0.49225 8.93273 0.689115C9.22803 0.836761 9.40029 0.935192 9.4495 0.984408C9.64637 1.03363 9.84323 1.15667 10.0401 1.35353C10.2862 1.55039 10.4584 1.69804 10.5569 1.79648C11.5412 1.89491 12.2794 1.94412 12.7716 1.94412L13.879 2.01795L14.9863 1.94412C15.2324 1.94412 15.4785 2.06716 15.7246 2.31324C16.1183 2.51011 16.3398 2.60854 16.389 2.60854C16.5366 2.60854 16.7581 2.51011 17.0534 2.31324C17.2503 2.06716 17.4717 1.96873 17.7178 2.01795C18.9974 2.01795 19.9572 1.99334 20.597 1.94412C20.7446 1.94412 20.9661 1.94412 21.2614 1.94412C21.5567 1.94412 21.852 1.91952 22.1473 1.8703C22.3441 1.72265 22.6394 1.74726 23.0332 1.94412L23.6976 2.01795L24.362 1.94412C24.8542 1.84569 25.1249 1.79648 25.1741 1.79648H29.4559C29.702 1.79648 29.9234 1.72265 30.1203 1.575C30.4648 1.37814 30.8339 1.27971 31.2277 1.27971C31.6706 1.27971 32.1135 1.35353 32.5565 1.50118C32.6549 1.50118 32.8272 1.62422 33.0733 1.8703L33.8115 2.90384C34.0084 3.1007 34.0084 3.37139 33.8115 3.71591L33.2947 4.08503C32.6549 4.28189 32.2858 4.74944 32.1874 5.48769C32.1382 5.73377 31.9905 6.02907 31.7444 6.37358Z" fill="#FF4638"/>
</svg>
