<svg width="106" height="197" viewBox="0 0 106 197" fill="none" xmlns="http://www.w3.org/2000/svg">
<path d="M97.8461 180.583H27.7557C32.2322 170.879 34.3848 163.108 36.6678 154.054C38.9917 144.59 39.0895 133.648 38.6248 123.125H73.3846C77.8855 123.125 81.5385 119.448 81.5385 114.917C81.5385 110.386 77.8855 106.708 73.3846 106.708H37.4506C36.0563 96.1196 31.3189 59.3545 31.3189 47.6083C31.3189 19.6425 47.3657 16.4167 59.4334 16.4167C69.0549 16.4167 77.6491 21.5879 83.3405 25.0026C84.482 25.6839 85.5094 26.2995 86.4165 26.8084C90.3466 29.0329 95.3022 27.6046 97.5037 23.64C99.6971 19.6836 98.2967 14.6847 94.3563 12.4767C93.5572 12.0334 92.6685 11.4999 91.6982 10.9089C84.8978 6.82112 73.5477 0 59.4334 0C31.2048 0 15.0031 17.3524 15.0031 47.6083C15.0031 59.8223 19.3491 94.1906 20.9962 106.708H8.15385C3.65292 106.708 0 110.386 0 114.917C0 119.448 3.65292 123.125 8.15385 123.125H22.3252C22.7655 132.532 22.7492 142.322 20.8494 150.073C17.9385 161.671 15.4189 170.356 7.24062 184.72C5.78923 187.265 5.79738 190.376 7.25692 192.912C8.71646 195.449 11.3991 197 14.31 197H97.8461C102.347 197 106 193.331 106 188.792C106 184.261 102.347 180.583 97.8461 180.583Z" fill="#F0DDBF"/>
</svg>
